<svg width="596" height="40" viewBox="0 0 596 40" fill="none" xmlns="http://www.w3.org/2000/svg">
<rect width="16" height="40" rx="4" fill="#35AD68"/>
<rect x="20" width="16" height="40" rx="4" fill="#35AD68"/>
<rect x="40" width="16" height="40" rx="4" fill="#35AD68"/>
<rect x="60" width="16" height="40" rx="4" fill="#35AD68"/>
<rect x="80" width="16" height="40" rx="4" fill="#35AD68"/>
<rect x="100" width="16" height="40" rx="4" fill="#35AD68"/>
<rect x="120" width="16" height="40" rx="4" fill="#35AD68"/>
<rect x="140" width="16" height="40" rx="4" fill="#35AD68"/>
<rect x="160" width="16" height="40" rx="4" fill="#35AD68"/>
<rect x="180" width="16" height="40" rx="4" fill="#35AD68"/>
<rect x="200" width="16" height="40" rx="4" fill="#35AD68"/>
<rect x="220" width="16" height="40" rx="4" fill="#35AD68"/>
<rect x="240" width="16" height="40" rx="4" fill="#35AD68"/>
<rect x="260" width="16" height="40" rx="4" fill="#35AD68"/>
<rect x="280" width="16" height="40" rx="4" fill="#35AD68"/>
<rect x="300" width="16" height="40" rx="4" fill="#35AD68"/>
<rect x="320" width="16" height="40" rx="4" fill="#35AD68"/>
<rect x="340" width="16" height="40" rx="4" fill="#35AD68"/>
<rect x="360" width="16" height="40" rx="4" fill="#35AD68"/>
<rect x="380" width="16" height="40" rx="4" fill="#35AD68"/>
<rect x="400" width="16" height="40" rx="4" fill="#35AD68"/>
<rect x="420" width="16" height="40" rx="4" fill="#35AD68"/>
<rect x="440" width="16" height="40" rx="4" fill="#35AD68"/>
<rect x="460" width="16" height="40" rx="4" fill="#35AD68"/>
<rect x="480" width="16" height="40" rx="4" fill="#35AD68"/>
<rect x="500" width="16" height="40" rx="4" fill="#35AD68"/>
<rect x="520" width="16" height="40" rx="4" fill="#35AD68"/>
<rect x="540" width="16" height="40" rx="4" fill="#35AD68"/>
<rect x="560" width="16" height="40" rx="4" fill="#35AD68"/>
<rect x="580" width="16" height="40" rx="4" fill="#35AD68"/>
</svg>
