<svg width="100" height="100" viewBox="0 0 100 100" fill="none" xmlns="http://www.w3.org/2000/svg">
<rect width="100" height="100" rx="50" fill="#EFF0F2"/>
<g clip-path="url(#clip0_340_3798)">
<path d="M50.0493 46.7591L45.7739 54.0337L43.6532 50.4268L37.2222 39.4844H54.3256L50.0493 46.7591Z" fill="#35AD68"/>
<path d="M45.7737 54.1814L37.0918 39.4106H54.4556L54.3909 39.5209L50.1146 46.7956L45.7737 54.1805V54.1814ZM37.3513 39.5588L45.7737 53.8868L54.1952 39.5588H37.3513Z" fill="#35AD68"/>
<path d="M62.9402 39.4844L50.0807 61.3613L47.1987 56.4581L57.1762 39.4844H62.9402Z" fill="#222222"/>
<path d="M50.0809 61.509L47.1118 56.4584L47.1334 56.4214L57.1324 39.4106H63.0696L63.0041 39.5209L50.08 61.5081L50.0809 61.509ZM47.2851 56.4584L50.0809 61.2135L62.8092 39.5588H57.2185L47.2851 56.4593V56.4584Z" fill="#222222"/>
<path d="M38.4234 56.0808H31.1969L29.1714 52.6344H36.397H42.3343L39.3661 47.5838H33.4289H26.2023L24.1769 44.1365H31.4025H37.3397L34.3707 39.0859H28.4334H21.2078H15.2705L18.2396 44.1365L25.2605 56.0808L28.2287 61.1313H34.1651H41.3916H47.3289L44.3607 56.0808H38.4234Z" fill="#222222"/>
<path d="M76.0338 44.1365H81.972L84.9411 39.0859H79.0029H71.7773H65.8409L62.8709 44.1365H62.8718L60.8455 47.5838L57.8764 52.6344H63.8146H71.0393L69.0129 56.0808H61.7891H55.8509L52.8818 61.1313H58.82H66.0447H71.9829L74.952 56.0808H74.9511L76.9774 52.6344L79.9456 47.5838H74.0084H66.7827L68.8091 44.1365H76.0338Z" fill="#222222"/>
<path d="M57.1324 39.1011L47.1334 56.1118L47.1118 56.1488L50.0172 61.0909L50.08 61.2135L63.0768 39.1011H57.1324Z" fill="#222222"/>
</g>
<defs>
<clipPath id="clip0_340_3798">
<rect width="69.6706" height="22.4229" fill="white" transform="translate(15.2705 39.0859)"/>
</clipPath>
</defs>
</svg>
