<svg width="25" height="24" viewBox="0 0 25 24" fill="none" xmlns="http://www.w3.org/2000/svg">
<path fill-rule="evenodd" clip-rule="evenodd" d="M12.5 23C18.5751 23 23.5 18.0751 23.5 12C23.5 5.92487 18.5751 1 12.5 1C6.42487 1 1.5 5.92487 1.5 12C1.5 18.0751 6.42487 23 12.5 23ZM10 8.76932L11.6043 7.16499L10 5.56066L11.0607 4.5L12.665 6.10433L14.2693 4.5L15.33 5.56066L13.7256 7.16499L15.33 8.76932L14.2693 9.82998L12.665 8.22565L11.0607 9.82998L10 8.76932ZM9.69767 12.501C9.69767 11.2113 8.65216 10.1657 7.36245 10.1657C6.07274 10.1657 5.02722 11.2113 5.02722 12.501C5.02722 13.7907 6.07274 14.8362 7.36245 14.8362C8.65216 14.8362 9.69767 13.7907 9.69767 12.501ZM19.9727 12.501C19.9727 11.2113 18.9272 10.1657 17.6374 10.1657C16.3477 10.1657 15.3022 11.2113 15.3022 12.501C15.3022 13.7907 16.3477 14.8362 17.6374 14.8362C18.9272 14.8362 19.9727 13.7907 19.9727 12.501ZM11.6043 17.665L10 19.2693L11.0607 20.33L12.665 18.7256L14.2693 20.33L15.33 19.2693L13.7256 17.665L15.33 16.0607L14.2693 15L12.665 16.6043L11.0607 15L10 16.0607L11.6043 17.665Z" fill="white"/>
</svg>
