<svg width="140" height="140" viewBox="0 0 140 140" fill="none" xmlns="http://www.w3.org/2000/svg">
<path fill-rule="evenodd" clip-rule="evenodd" d="M60.2118 65.2125C72.1446 65.2125 81.8181 55.5391 81.8181 43.6063C81.8181 31.6735 72.1446 22 60.2118 22C48.279 22 38.6056 31.6735 38.6056 43.6063C38.6056 55.5391 48.279 65.2125 60.2118 65.2125ZM77.3439 104.026C77.3439 94.3507 82.0453 85.7733 89.2883 80.4538C85.6028 77.5208 81.3614 75.1643 76.7493 73.4927C71.5065 71.5925 65.8873 70.6145 60.2125 70.6145C54.5378 70.6145 48.9186 71.5925 43.6758 73.4927C38.433 75.3929 33.6693 78.178 29.6567 81.6891C25.644 85.2001 22.461 89.3684 20.2894 93.9558C18.1177 98.5433 17 103.46 17 108.425H60.2125H77.6728C77.4562 106.991 77.3439 105.521 77.3439 104.026ZM121.986 102.786C121.986 103.505 121.94 104.181 121.849 104.834L126.416 108.277C126.847 108.582 126.961 109.127 126.688 109.606L122.326 116.84C122.054 117.319 121.486 117.493 120.986 117.319L115.557 115.227C114.444 116.055 113.217 116.752 111.876 117.275L111.059 122.81C110.99 123.332 110.536 123.703 109.991 123.703H101.267C100.722 123.703 100.291 123.332 100.177 122.81L99.3592 117.275C98.0189 116.752 96.8149 116.055 95.679 115.227L90.2496 117.319C89.7498 117.471 89.1819 117.319 88.9092 116.84L84.5475 109.606C84.2976 109.17 84.4112 108.582 84.8201 108.277L89.4317 104.834C89.3182 104.181 89.2727 103.462 89.2727 102.786C89.2727 102.111 89.3636 101.392 89.4772 100.738L84.8656 97.2958C84.4112 96.9908 84.3204 96.4243 84.593 95.9668L88.932 88.7332C89.2046 88.2538 89.7725 88.0795 90.2723 88.2538L95.7017 90.3455C96.8149 89.5393 98.0416 88.8203 99.3819 88.2974L100.2 82.7633C100.291 82.2404 100.722 81.87 101.267 81.87H109.991C110.536 81.87 110.99 82.2404 111.081 82.7633L111.899 88.2974C113.239 88.8203 114.444 89.5175 115.579 90.3455L121.009 88.2538C121.509 88.1013 122.077 88.2538 122.349 88.7332L126.711 95.9668C126.961 96.4025 126.847 96.9908 126.438 97.2958L121.827 100.738C121.94 101.392 121.986 102.089 121.986 102.786ZM97.451 102.786C97.451 107.1 101.131 110.63 105.629 110.63C110.127 110.63 113.807 107.1 113.807 102.786C113.807 98.4724 110.127 94.9427 105.629 94.9427C101.131 94.9427 97.451 98.4724 97.451 102.786Z" fill="white"/>
</svg>
