<svg width="24" height="24" viewBox="0 0 24 24" fill="none" xmlns="http://www.w3.org/2000/svg">
<mask id="path-1-inside-1_268_339" fill="white">
<path fill-rule="evenodd" clip-rule="evenodd" d="M13.4849 12.6734C15.4931 12.0426 16.9498 10.1664 16.9498 7.95C16.9498 5.21619 14.7336 3 11.9998 3C9.266 3 7.0498 5.21619 7.0498 7.95C7.0498 10.1665 8.50656 12.0427 10.5149 12.6734C9.84427 12.7856 9.18696 12.9737 8.55585 13.2351C7.46392 13.6874 6.47177 14.3503 5.63604 15.1861C4.80031 16.0218 4.13738 17.0139 3.68508 18.1059C3.23279 19.1978 3 20.3681 3 21.55H3.89995V21.65H20.1V21.55H21C21 20.3681 20.7672 19.1978 20.3149 18.1059C19.8626 17.0139 19.1997 16.0218 18.364 15.1861C17.5282 14.3503 16.5361 13.6874 15.4442 13.2351C14.813 12.9737 14.1556 12.7856 13.4849 12.6734Z"/>
</mask>
<path fill-rule="evenodd" clip-rule="evenodd" d="M13.4849 12.6734C15.4931 12.0426 16.9498 10.1664 16.9498 7.95C16.9498 5.21619 14.7336 3 11.9998 3C9.266 3 7.0498 5.21619 7.0498 7.95C7.0498 10.1665 8.50656 12.0427 10.5149 12.6734C9.84427 12.7856 9.18696 12.9737 8.55585 13.2351C7.46392 13.6874 6.47177 14.3503 5.63604 15.1861C4.80031 16.0218 4.13738 17.0139 3.68508 18.1059C3.23279 19.1978 3 20.3681 3 21.55H3.89995V21.65H20.1V21.55H21C21 20.3681 20.7672 19.1978 20.3149 18.1059C19.8626 17.0139 19.1997 16.0218 18.364 15.1861C17.5282 14.3503 16.5361 13.6874 15.4442 13.2351C14.813 12.9737 14.1556 12.7856 13.4849 12.6734Z" fill="white"/>
<path d="M13.4849 12.6734L12.8856 10.7653L13.1549 14.646L13.4849 12.6734ZM10.5149 12.6734L10.8449 14.646L11.1141 10.7653L10.5149 12.6734ZM8.55585 13.2351L9.32122 15.0829L9.32122 15.0829L8.55585 13.2351ZM5.63604 15.1861L7.05025 16.6003L7.05025 16.6003L5.63604 15.1861ZM3.68508 18.1059L5.53284 18.8712L5.53284 18.8712L3.68508 18.1059ZM3 21.55H1V23.55H3V21.55ZM3.89995 21.55H5.89995V19.55H3.89995V21.55ZM3.89995 21.65H1.89995V23.65H3.89995V21.65ZM20.1 21.65V23.65H22.1V21.65H20.1ZM20.1 21.55V19.55H18.1V21.55H20.1ZM21 21.55V23.55H23V21.55H21ZM20.3149 18.1059L22.1627 17.3405V17.3405L20.3149 18.1059ZM18.364 15.1861L19.7782 13.7718L18.364 15.1861ZM15.4442 13.2351L16.2095 11.3873L15.4442 13.2351ZM14.9498 7.95C14.9498 9.26786 14.0842 10.3888 12.8856 10.7653L14.0842 14.5815C16.902 13.6964 18.9498 11.0649 18.9498 7.95H14.9498ZM11.9998 5C13.629 5 14.9498 6.32076 14.9498 7.95H18.9498C18.9498 4.11162 15.8382 1 11.9998 1V5ZM9.0498 7.95C9.0498 6.32076 10.3706 5 11.9998 5V1C8.16143 1 5.0498 4.11162 5.0498 7.95H9.0498ZM11.1141 10.7653C9.91546 10.3888 9.0498 9.26789 9.0498 7.95H5.0498C5.0498 11.065 7.09766 13.6965 9.91558 14.5815L11.1141 10.7653ZM9.32122 15.0829C9.81208 14.8795 10.3233 14.7333 10.8449 14.646L10.1848 10.7008C9.36522 10.838 8.56185 11.0678 7.79048 11.3874L9.32122 15.0829ZM7.05025 16.6003C7.70026 15.9503 8.47194 15.4347 9.32122 15.0829L7.79048 11.3873C6.4559 11.9402 5.24327 12.7504 4.22182 13.7719L7.05025 16.6003ZM5.53284 18.8712C5.88463 18.022 6.40024 17.2503 7.05025 16.6003L4.22183 13.7718C3.20038 14.7933 2.39013 16.0059 1.83732 17.3405L5.53284 18.8712ZM5 21.55C5 20.6308 5.18106 19.7205 5.53284 18.8712L1.83732 17.3405C1.28452 18.6751 1 20.1055 1 21.55H5ZM3.89995 19.55H3V23.55H3.89995V19.55ZM5.89995 21.65V21.55H1.89995V21.65H5.89995ZM20.1 19.65H3.89995V23.65H20.1V19.65ZM18.1 21.55V21.65H22.1V21.55H18.1ZM21 19.55H20.1V23.55H21V19.55ZM18.4672 18.8712C18.8189 19.7205 19 20.6308 19 21.55H23C23 20.1055 22.7155 18.6751 22.1627 17.3405L18.4672 18.8712ZM16.9497 16.6003C17.5998 17.2503 18.1154 18.022 18.4672 18.8712L22.1627 17.3405C21.6099 16.0059 20.7996 14.7933 19.7782 13.7718L16.9497 16.6003ZM14.6788 15.0829C15.5281 15.4347 16.2997 15.9503 16.9497 16.6003L19.7782 13.7718C18.7567 12.7504 17.5441 11.9402 16.2095 11.3873L14.6788 15.0829ZM13.1549 14.646C13.6766 14.7332 14.1879 14.8795 14.6788 15.0829L16.2095 11.3873C15.4381 11.0678 14.6346 10.8379 13.8149 10.7008L13.1549 14.646Z" fill="white" mask="url(#path-1-inside-1_268_339)"/>
</svg>
