<svg width="140" height="140" viewBox="0 0 140 140" fill="none" xmlns="http://www.w3.org/2000/svg">
<path fill-rule="evenodd" clip-rule="evenodd" d="M40.9223 46.1989C40.9223 30.609 53.7885 18 69.6967 18C85.6048 18 98.4711 30.609 98.4711 46.1989C98.4711 62.6983 80.9585 85.327 73.2578 94.4798C71.3767 96.7157 68.0167 96.7157 66.1356 94.4798C58.4349 85.327 40.9223 62.6983 40.9223 46.1989ZM69.5542 70.2259C82.2675 70.2259 92.5737 59.9197 92.5737 47.2063C92.5737 34.493 82.2675 24.1868 69.5542 24.1868C56.8408 24.1868 46.5346 34.493 46.5346 47.2063C46.5346 59.9197 56.8408 70.2259 69.5542 70.2259ZM86.2252 47.8442C86.2252 57.1912 78.8474 64.7684 69.7465 64.7684C60.6455 64.7684 53.2677 57.1912 53.2677 47.8442C53.2677 38.4973 60.6455 30.9201 69.7465 30.9201C78.8474 30.9201 86.2252 38.4973 86.2252 47.8442ZM42.9547 89.9165C45.0363 89.1767 46.124 86.8895 45.3842 84.808C44.6444 82.7264 42.3572 81.6387 40.2756 82.3785C30.3486 85.9066 27.0005 93.094 27.0005 97.4652C27.0005 105.407 33.0109 111.65 40.6082 115.672C48.3846 119.789 58.8512 122.214 70.1932 122.214C81.5352 122.214 92.0019 119.789 99.7783 115.672C107.376 111.65 113.386 105.407 113.386 97.4652V97.2299L113.358 96.9962C113.167 95.3707 112.588 92.7802 110.586 90.0123C108.589 87.2518 105.369 84.5803 100.32 82.4596C98.2836 81.6041 95.9389 82.5617 95.0834 84.5985C94.2279 86.6352 95.1855 88.9799 97.2223 89.8354C101.155 91.4873 103.106 93.3219 104.104 94.7007C104.99 95.9262 105.274 97.0005 105.382 97.7005C105.261 101.166 102.476 105.192 96.0351 108.602C89.6265 111.995 80.4968 114.214 70.1932 114.214C59.8897 114.214 50.76 111.995 44.3513 108.602C37.7637 105.114 35.0005 100.983 35.0005 97.4652C35.0005 96.8063 35.8983 92.4245 42.9547 89.9165Z" fill="white"/>
<g clip-path="url(#clip0_482_4201)">
<rect width="24.0501" height="24.0501" transform="translate(57.7236 34.4844)" fill="white"/>
<path d="M63.6257 45.2077L72.1152 37.4496C72.9007 36.7318 74.115 37.5745 73.7174 38.5615L71.8225 43.2645C71.5578 43.9217 72.0416 44.6382 72.7501 44.6382H74.2792C75.1743 44.6382 75.6186 45.7241 74.9801 46.3515L66.2897 54.8909C65.5063 55.6608 64.2345 54.7879 64.6713 53.78L67.0271 48.3435C67.3132 47.6832 66.8292 46.9459 66.1095 46.9459H64.3003C63.3875 46.9459 62.9519 45.8235 63.6257 45.2077Z" fill="#FF7A00"/>
</g>
<defs>
<clipPath id="clip0_482_4201">
<rect width="24.0501" height="24.0501" fill="white" transform="translate(57.7236 34.4844)"/>
</clipPath>
</defs>
</svg>
