<svg width="21" height="19" viewBox="0 0 21 19" fill="none" xmlns="http://www.w3.org/2000/svg">
<path fill-rule="evenodd" clip-rule="evenodd" d="M10.3636 19C16.0873 19 20.7273 14.36 20.7273 8.63636C20.7273 1.18541 18.6782 0 10.3636 0C2.04905 0 0 1.18541 0 8.63636C0 14.36 4.63996 19 10.3636 19ZM7.77278 3.45454C8.48824 3.45454 9.06823 4.03453 9.06823 4.74999C9.06823 5.46545 8.48824 6.04544 7.77278 6.04544C7.05732 6.04544 6.47732 5.46545 6.47732 4.74999C6.47732 4.03453 7.05732 3.45454 7.77278 3.45454ZM4.74995 7.3409C5.70389 7.3409 6.47722 8.11423 6.47722 9.06817C6.47722 10.0221 5.70389 10.7954 4.74995 10.7954C3.796 10.7954 3.02267 10.0221 3.02267 9.06817C3.02267 8.11423 3.796 7.3409 4.74995 7.3409ZM10.3637 7.3409C11.3176 7.3409 12.0909 8.11423 12.0909 9.06817C12.0909 10.0221 11.3176 10.7954 10.3637 10.7954C9.40972 10.7954 8.63639 10.0221 8.63639 9.06817C8.63639 8.11423 9.40972 7.3409 10.3637 7.3409ZM17.7045 9.06817C17.7045 8.11423 16.9312 7.3409 15.9773 7.3409C15.0233 7.3409 14.25 8.11423 14.25 9.06817C14.25 10.0221 15.0233 10.7954 15.9773 10.7954C16.9312 10.7954 17.7045 10.0221 17.7045 9.06817ZM6.90913 11.659C7.86308 11.659 8.63641 12.4324 8.63641 13.3863C8.63641 14.3403 7.86308 15.1136 6.90913 15.1136C5.95519 15.1136 5.18186 14.3403 5.18186 13.3863C5.18186 12.4324 5.95519 11.659 6.90913 11.659ZM15.5455 13.3863C15.5455 12.4324 14.7721 11.659 13.8182 11.659C12.8643 11.659 12.0909 12.4324 12.0909 13.3863C12.0909 14.3403 12.8643 15.1136 13.8182 15.1136C14.7721 15.1136 15.5455 14.3403 15.5455 13.3863ZM14.25 4.74999C14.25 4.03453 13.67 3.45454 12.9545 3.45454C12.2391 3.45454 11.6591 4.03453 11.6591 4.74999C11.6591 5.46545 12.2391 6.04544 12.9545 6.04544C13.67 6.04544 14.25 5.46545 14.25 4.74999Z" fill="#5A5C5F"/>
</svg>
