<svg width="24" height="24" viewBox="0 0 24 24" fill="none" xmlns="http://www.w3.org/2000/svg">
<path fill-rule="evenodd" clip-rule="evenodd" d="M12 23C18.0751 23 23 18.0751 23 12C23 5.92487 18.0751 1 12 1C5.92487 1 1 5.92487 1 12C1 18.0751 5.92487 23 12 23ZM9.5 8.76932L11.1043 7.16499L9.5 5.56066L10.5607 4.5L12.165 6.10433L13.7693 4.5L14.83 5.56066L13.2256 7.16499L14.83 8.76932L13.7693 9.82998L12.165 8.22565L10.5607 9.82998L9.5 8.76932ZM9.19767 12.501C9.19767 11.2113 8.15216 10.1657 6.86245 10.1657C5.57274 10.1657 4.52722 11.2113 4.52722 12.501C4.52722 13.7907 5.57274 14.8362 6.86245 14.8362C8.15216 14.8362 9.19767 13.7907 9.19767 12.501ZM19.4727 12.501C19.4727 11.2113 18.4272 10.1657 17.1374 10.1657C15.8477 10.1657 14.8022 11.2113 14.8022 12.501C14.8022 13.7907 15.8477 14.8362 17.1374 14.8362C18.4272 14.8362 19.4727 13.7907 19.4727 12.501ZM11.1043 17.665L9.5 19.2693L10.5607 20.33L12.165 18.7256L13.7693 20.33L14.83 19.2693L13.2256 17.665L14.83 16.0607L13.7693 15L12.165 16.6043L10.5607 15L9.5 16.0607L11.1043 17.665Z" fill="#FFA800"/>
</svg>
