<svg width="15" height="20" viewBox="0 0 15 20" fill="none" xmlns="http://www.w3.org/2000/svg">
<path fill-rule="evenodd" clip-rule="evenodd" d="M13.827 5.76124C13.827 9.57946 10.7317 12.6747 6.91349 12.6747C3.09527 12.6747 0 9.57946 0 5.76124C0 0.790779 1.3669 0 6.91349 0C12.4601 0 13.827 0.790779 13.827 5.76124ZM6.04928 3.16872C6.04928 2.69145 5.66237 2.30454 5.1851 2.30454C4.70782 2.30454 4.32091 2.69145 4.32091 3.16872C4.32091 3.646 4.70782 4.03291 5.1851 4.03291C5.66237 4.03291 6.04928 3.646 6.04928 3.16872ZM4.32084 6.04934C4.32084 5.41297 3.80496 4.89709 3.16859 4.89709C2.53222 4.89709 2.01634 5.41297 2.01634 6.04934C2.01634 6.68571 2.53222 7.20159 3.16859 7.20159C3.80496 7.20159 4.32084 6.68571 4.32084 6.04934ZM8.0657 6.04934C8.0657 5.41297 7.54982 4.89709 6.91346 4.89709C6.27709 4.89709 5.76121 5.41297 5.76121 6.04934C5.76121 6.68571 6.27709 7.20159 6.91346 7.20159C7.54982 7.20159 8.0657 6.68571 8.0657 6.04934ZM10.6582 4.89709C11.2946 4.89709 11.8105 5.41297 11.8105 6.04934C11.8105 6.68571 11.2946 7.20159 10.6582 7.20159C10.0219 7.20159 9.50599 6.68571 9.50599 6.04934C9.50599 5.41297 10.0219 4.89709 10.6582 4.89709ZM5.76122 8.92994C5.76122 8.29357 5.24534 7.77769 4.60897 7.77769C3.9726 7.77769 3.45672 8.29357 3.45672 8.92994C3.45672 9.56631 3.9726 10.0822 4.60897 10.0822C5.24534 10.0822 5.76122 9.56631 5.76122 8.92994ZM9.21795 7.77769C9.85431 7.77769 10.3702 8.29357 10.3702 8.92994C10.3702 9.56631 9.85431 10.0822 9.21795 10.0822C8.58158 10.0822 8.0657 9.56631 8.0657 8.92994C8.0657 8.29357 8.58158 7.77769 9.21795 7.77769ZM8.64179 2.30454C9.11907 2.30454 9.50598 2.69145 9.50598 3.16872C9.50598 3.646 9.11907 4.03291 8.64179 4.03291C8.16452 4.03291 7.77761 3.646 7.77761 3.16872C7.77761 2.69145 8.16452 2.30454 8.64179 2.30454ZM0 16.8182C0 15.0609 1.42455 13.6364 3.18182 13.6364H11.3636C13.1209 13.6364 14.5455 15.0609 14.5455 16.8182C14.5455 18.5754 13.1209 20 11.3636 20H3.18182C1.42455 20 0 18.5754 0 16.8182ZM4.07402 15.3907C4.82403 15.3907 5.43203 15.9987 5.43203 16.7488C5.43203 17.4988 4.82403 18.1068 4.07402 18.1068C3.32401 18.1068 2.71601 17.4988 2.71601 16.7488C2.71601 15.9987 3.32401 15.3907 4.07402 15.3907ZM10.4114 15.3907C11.1614 15.3907 11.7694 15.9987 11.7694 16.7488C11.7694 17.4988 11.1614 18.1068 10.4114 18.1068C9.66138 18.1068 9.05338 17.4988 9.05338 16.7488C9.05338 15.9987 9.66138 15.3907 10.4114 15.3907Z" fill="#5A5C5F"/>
</svg>
