<svg width="140" height="140" viewBox="0 0 140 140" fill="none" xmlns="http://www.w3.org/2000/svg">
<path fill-rule="evenodd" clip-rule="evenodd" d="M102.5 11C101.12 11 100 12.1193 100 13.5V18H99.9172C96.6035 18 93.9172 20.6863 93.9172 24V38.6357C93.9172 41.9494 96.6035 44.6357 99.9172 44.6357H111.001C114.315 44.6357 117.001 41.9494 117.001 38.6357V24C117.001 20.6863 114.315 18 111.002 18H105V13.5C105 12.1193 103.881 11 102.5 11ZM101.459 49.075V94.6874C101.459 105.534 92.6661 114.328 81.819 114.328H80.0056C69.2024 114.328 59.744 107.077 56.9386 96.6441L49.2131 98.7215C52.9579 112.648 65.5842 122.328 80.0056 122.328H81.819C97.0844 122.328 109.459 109.953 109.459 94.6874V49.075H101.459ZM84.1504 61.5054C84.1504 78.6677 70.2377 92.5804 53.0755 92.5804C35.9132 92.5804 22.0005 78.6677 22.0005 61.5054C22.0005 44.3432 35.9132 30.4304 53.0755 30.4304C70.2377 30.4304 84.1504 44.3432 84.1504 61.5054ZM77.9354 61.5054C77.9354 75.2352 66.8053 86.3654 53.0755 86.3654C39.3457 86.3654 28.2155 75.2352 28.2155 61.5054C28.2155 47.7756 39.3457 36.6454 53.0755 36.6454C66.8053 36.6454 77.9354 47.7756 77.9354 61.5054ZM53.0758 79.2624C62.8828 79.2624 70.8329 71.3123 70.8329 61.5053C70.8329 51.6983 62.8828 43.7481 53.0758 43.7481C43.2688 43.7481 35.3187 51.6983 35.3187 61.5053C35.3187 71.3123 43.2688 79.2624 53.0758 79.2624Z" fill="white"/>
<g clip-path="url(#clip0_482_4703)">
<path d="M47.4365 59.7995L55.926 52.0414C56.7115 51.3236 57.9258 52.1663 57.5281 53.1533L55.6333 57.8563C55.3686 58.5135 55.8524 59.23 56.5609 59.23H58.09C58.9851 59.23 59.4293 60.3159 58.7909 60.9433L50.1005 69.4827C49.317 70.2526 48.0453 69.3797 48.4821 68.3718L50.8379 62.9353C51.124 62.275 50.64 61.5377 49.9203 61.5377H48.1111C47.1983 61.5377 46.7627 60.4153 47.4365 59.7995Z" fill="#FF7A00"/>
</g>
<defs>
<clipPath id="clip0_482_4703">
<rect width="23.9721" height="23.9721" fill="white" transform="translate(41.5344 49.0762)"/>
</clipPath>
</defs>
</svg>
