<svg width="16" height="21" viewBox="0 0 16 21" fill="none" xmlns="http://www.w3.org/2000/svg">
<path fill-rule="evenodd" clip-rule="evenodd" d="M14.3 6.3C14.3 9.77939 11.4793 12.6 7.99995 12.6C4.52056 12.6 1.69995 9.77939 1.69995 6.3C1.69995 2.82061 4.52056 0 7.99995 0C11.4793 0 14.3 2.82061 14.3 6.3ZM7.0252 4.05007C7.0252 3.30449 6.42078 2.70007 5.6752 2.70007C4.92961 2.70007 4.3252 3.30449 4.3252 4.05007C4.3252 4.79566 4.92961 5.40007 5.6752 5.40007C6.42078 5.40007 7.0252 4.79566 7.0252 4.05007ZM5.90005 7.35007C5.90005 6.77017 5.42995 6.30007 4.85005 6.30007C4.27015 6.30007 3.80005 6.77017 3.80005 7.35007C3.80005 7.92997 4.27015 8.40007 4.85005 8.40007C5.42995 8.40007 5.90005 7.92997 5.90005 7.35007ZM11.15 6.30007C11.7299 6.30007 12.2 6.77017 12.2 7.35007C12.2 7.92997 11.7299 8.40007 11.15 8.40007C10.5701 8.40007 10.1 7.92997 10.1 7.35007C10.1 6.77017 10.5701 6.30007 11.15 6.30007ZM11.5999 4.05007C11.5999 3.30449 10.9955 2.70007 10.2499 2.70007C9.50432 2.70007 8.8999 3.30449 8.8999 4.05007C8.8999 4.79566 9.50432 5.40007 10.2499 5.40007C10.9955 5.40007 11.5999 4.79566 11.5999 4.05007ZM7.9999 8.32507C8.74549 8.32507 9.3499 8.92949 9.3499 9.67507C9.3499 10.4207 8.74549 11.0251 7.9999 11.0251C7.25432 11.0251 6.6499 10.4207 6.6499 9.67507C6.6499 8.92949 7.25432 8.32507 7.9999 8.32507ZM0 17.1C0 15.167 1.567 13.6 3.5 13.6H12.5C14.433 13.6 16 15.167 16 17.1C16 19.033 14.433 20.6 12.5 20.6H3.5C1.567 20.6 0 19.033 0 17.1ZM4.5 15.6C5.32843 15.6 6 16.2715 6 17.1C6 17.9284 5.32843 18.6 4.5 18.6C3.67157 18.6 3 17.9284 3 17.1C3 16.2715 3.67157 15.6 4.5 15.6ZM11.5 15.6C12.3284 15.6 13 16.2715 13 17.1C13 17.9284 12.3284 18.6 11.5 18.6C10.6716 18.6 10 17.9284 10 17.1C10 16.2715 10.6716 15.6 11.5 15.6Z" fill="#5A5C5F"/>
</svg>
