<svg width="20" height="18" viewBox="0 0 20 18" fill="none" xmlns="http://www.w3.org/2000/svg">
<path fill-rule="evenodd" clip-rule="evenodd" d="M9.9 18C15.3676 18 19.8 13.6042 19.8 8.18182C19.8 1.12302 17.8426 0 9.9 0C1.95738 0 0 1.12302 0 8.18182C0 13.6042 4.43238 18 9.9 18ZM7.64995 5.85005C7.64995 4.60741 6.64259 3.60005 5.39995 3.60005C4.15731 3.60005 3.14995 4.60741 3.14995 5.85005C3.14995 7.09269 4.15731 8.10005 5.39995 8.10005C6.64259 8.10005 7.64995 7.09269 7.64995 5.85005ZM16.65 5.85005C16.65 4.60741 15.6426 3.60005 14.4 3.60005C13.1573 3.60005 12.15 4.60741 12.15 5.85005C12.15 7.09269 13.1573 8.10005 14.4 8.10005C15.6426 8.10005 16.65 7.09269 16.65 5.85005ZM5.40005 9.9C6.39416 9.9 7.20005 10.7059 7.20005 11.7C7.20005 12.6941 6.39416 13.5 5.40005 13.5C4.40593 13.5 3.60005 12.6941 3.60005 11.7C3.60005 10.7059 4.40593 9.9 5.40005 9.9ZM16.2 11.7C16.2 10.7059 15.3942 9.9 14.4 9.9C13.4059 9.9 12.6 10.7059 12.6 11.7C12.6 12.6941 13.4059 13.5 14.4 13.5C15.3942 13.5 16.2 12.6941 16.2 11.7ZM9.90002 8.10002C10.6456 8.10002 11.25 8.70444 11.25 9.45002C11.25 10.1956 10.6456 10.8 9.90002 10.8C9.15444 10.8 8.55002 10.1956 8.55002 9.45002C8.55002 8.70444 9.15444 8.10002 9.90002 8.10002ZM11.7 14.85H8.10005V13.05H11.7V14.85Z" fill="#5A5C5F"/>
</svg>
