<svg width="24" height="24" viewBox="0 0 24 24" fill="none" xmlns="http://www.w3.org/2000/svg">
<path fill-rule="evenodd" clip-rule="evenodd" d="M12.0009 23C18.0258 23 22.91 18.1158 22.91 12.0909C22.91 4.2478 20.7531 3 12.0009 3C3.24869 3 1.0918 4.2478 1.0918 12.0909C1.0918 18.1158 5.97596 23 12.0009 23ZM9.27367 6.63635C10.0268 6.63635 10.6373 7.24687 10.6373 7.99999C10.6373 8.7531 10.0268 9.36363 9.27367 9.36363C8.52056 9.36363 7.91003 8.7531 7.91003 7.99999C7.91003 7.24687 8.52056 6.63635 9.27367 6.63635ZM6.09174 10.7273C7.0959 10.7273 7.90992 11.5413 7.90992 12.5454C7.90992 13.5496 7.0959 14.3636 6.09174 14.3636C5.08759 14.3636 4.27356 13.5496 4.27356 12.5454C4.27356 11.5413 5.08759 10.7273 6.09174 10.7273ZM12.0009 10.7273C13.0051 10.7273 13.8191 11.5413 13.8191 12.5454C13.8191 13.5496 13.0051 14.3636 12.0009 14.3636C10.9968 14.3636 10.1827 13.5496 10.1827 12.5454C10.1827 11.5413 10.9968 10.7273 12.0009 10.7273ZM19.7282 12.5454C19.7282 11.5413 18.9141 10.7273 17.91 10.7273C16.9058 10.7273 16.0918 11.5413 16.0918 12.5454C16.0918 13.5496 16.9058 14.3636 17.91 14.3636C18.9141 14.3636 19.7282 13.5496 19.7282 12.5454ZM8.36457 15.2727C9.36872 15.2727 10.1828 16.0867 10.1828 17.0909C10.1828 18.095 9.36872 18.909 8.36457 18.909C7.36041 18.909 6.54639 18.095 6.54639 17.0909C6.54639 16.0867 7.36041 15.2727 8.36457 15.2727ZM17.4555 17.0909C17.4555 16.0867 16.6414 15.2727 15.6373 15.2727C14.6331 15.2727 13.8191 16.0867 13.8191 17.0909C13.8191 18.095 14.6331 18.909 15.6373 18.909C16.6414 18.909 17.4555 18.095 17.4555 17.0909ZM16.0918 7.99999C16.0918 7.24687 15.4813 6.63635 14.7281 6.63635C13.975 6.63635 13.3645 7.24687 13.3645 7.99999C13.3645 8.7531 13.975 9.36363 14.7281 9.36363C15.4813 9.36363 16.0918 8.7531 16.0918 7.99999Z" fill="#35AD68"/>
</svg>
