<svg width="40" height="40" viewBox="0 0 40 40" fill="none" xmlns="http://www.w3.org/2000/svg">
<rect width="40" height="40" rx="8" fill="#E3FBE0"/>
<path fill-rule="evenodd" clip-rule="evenodd" d="M13 25L13 15C13 13.8954 13.8954 13 15 13L17 13L17 11L15 11C12.7909 11 11 12.7909 11 15L11 25C11 27.2091 12.7909 29 15 29L25 29C27.2091 29 29 27.2091 29 25L29 23L27 23L27 25C27 26.1046 26.1046 27 25 27L15 27C13.8954 27 13 26.1046 13 25Z" fill="#35AD68"/>
<path fill-rule="evenodd" clip-rule="evenodd" d="M18.2136 23.2304L20.4132 22.8395L26.7545 15.7487L23.5256 12.8611L17.1844 19.952L17.0407 22.1815C16.999 22.8288 17.575 23.3439 18.2136 23.2304ZM24.647 11.7391L27.8759 14.6266L29.3197 13.0121L26.0908 10.1246L24.647 11.7391Z" fill="#35AD68"/>
</svg>
