<svg width="180" height="72" viewBox="0 0 180 72" fill="none" xmlns="http://www.w3.org/2000/svg">
<g clip-path="url(#clip0_688_7509)">
<path d="M90.1225 26.8975L79.434 45.0842L74.1323 36.0669L58.0547 8.71082H100.813L90.1225 26.8975Z" fill="#35AD68"/>
<path d="M79.4352 45.4523L57.7305 8.52551H101.14L100.978 8.8011L90.2876 26.9878L79.4352 45.4501V45.4523ZM58.3791 8.89591L79.4352 44.716L100.489 8.89591H58.3791Z" fill="#35AD68"/>
<path d="M122.35 8.71082L90.2011 63.4032L82.9961 51.145L107.94 8.71082H122.35Z" fill="white"/>
<path d="M90.2 63.7713L82.7773 51.1449L82.8312 51.0523L107.829 8.52551H122.672L122.508 8.8011L90.1978 63.7691L90.2 63.7713ZM83.2105 51.1449L90.2 63.0327L122.021 8.89591H108.044L83.2105 51.1471V51.1449Z" fill="white"/>
<path d="M61.058 50.2013H42.9917L37.928 41.5853H55.9921H70.8353L63.4148 28.9589H48.5716H30.5053L25.4416 20.3406H43.5057H58.3489L50.9262 7.71423H36.083H18.0189H3.17578L10.5985 20.3406L28.1508 50.2013L35.5713 62.8278H50.4122H68.4785H83.3217L75.9012 50.2013H61.058Z" fill="white"/>
<path d="M155.083 20.3406H169.929L177.351 7.71423H162.506H144.442H129.601L122.176 20.3406H122.178L117.112 28.9589L109.69 41.5853H124.535H142.597L137.531 50.2013H119.471H104.626L97.2031 62.8278H112.049H130.11H144.956L152.378 50.2013H152.376L157.442 41.5853L164.863 28.9589H150.019H131.955L137.021 20.3406H155.083Z" fill="white"/>
<path d="M107.829 7.75171L82.8312 50.2785L82.7773 50.3711L90.0407 62.7263L90.1978 63.0328L122.69 7.75171H107.829Z" fill="white"/>
</g>
<defs>
<clipPath id="clip0_688_7509">
<rect width="174.176" height="56.0571" fill="white" transform="translate(3.17578 7.71423)"/>
</clipPath>
</defs>
</svg>
