<svg width="24" height="24" viewBox="0 0 24 24" fill="none" xmlns="http://www.w3.org/2000/svg">
<path fill-rule="evenodd" clip-rule="evenodd" d="M11.9992 14.6C15.4786 14.6 18.2992 11.7794 18.2992 8.3C18.2992 4.82061 15.4786 2 11.9992 2C8.51982 2 5.69922 4.82061 5.69922 8.3C5.69922 11.7794 8.51982 14.6 11.9992 14.6ZM9.67446 4.70007C10.42 4.70007 11.0245 5.30449 11.0245 6.05007C11.0245 6.79566 10.42 7.40007 9.67446 7.40007C8.92888 7.40007 8.32446 6.79566 8.32446 6.05007C8.32446 5.30449 8.92888 4.70007 9.67446 4.70007ZM8.84932 8.30007C9.42922 8.30007 9.89932 8.77017 9.89932 9.35007C9.89932 9.92997 9.42922 10.4001 8.84932 10.4001C8.26942 10.4001 7.79932 9.92997 7.79932 9.35007C7.79932 8.77017 8.26942 8.30007 8.84932 8.30007ZM16.1992 9.35007C16.1992 8.77017 15.7291 8.30007 15.1492 8.30007C14.5693 8.30007 14.0992 8.77017 14.0992 9.35007C14.0992 9.92997 14.5693 10.4001 15.1492 10.4001C15.7291 10.4001 16.1992 9.92997 16.1992 9.35007ZM14.2492 4.70007C14.9948 4.70007 15.5992 5.30449 15.5992 6.05007C15.5992 6.79566 14.9948 7.40007 14.2492 7.40007C13.5036 7.40007 12.8992 6.79566 12.8992 6.05007C12.8992 5.30449 13.5036 4.70007 14.2492 4.70007ZM13.3492 11.6751C13.3492 10.9295 12.7448 10.3251 11.9992 10.3251C11.2536 10.3251 10.6492 10.9295 10.6492 11.6751C10.6492 12.4207 11.2536 13.0251 11.9992 13.0251C12.7448 13.0251 13.3492 12.4207 13.3492 11.6751Z" fill="#00BDE7"/>
<path fill-rule="evenodd" clip-rule="evenodd" d="M7.5 16C5.567 16 4 17.567 4 19.5C4 21.433 5.567 23 7.5 23H16.5C18.433 23 20 21.433 20 19.5C20 17.567 18.433 16 16.5 16H7.5ZM10 19.5C10 18.6716 9.32843 18 8.5 18C7.67157 18 7 18.6716 7 19.5C7 20.3284 7.67157 21 8.5 21C9.32843 21 10 20.3284 10 19.5ZM17 19.5C17 18.6716 16.3284 18 15.5 18C14.6716 18 14 18.6716 14 19.5C14 20.3284 14.6716 21 15.5 21C16.3284 21 17 20.3284 17 19.5Z" fill="#00BDE7"/>
</svg>
