<svg width="140" height="140" viewBox="0 0 140 140" fill="none" xmlns="http://www.w3.org/2000/svg">
<path fill-rule="evenodd" clip-rule="evenodd" d="M69.7089 64.7103C81.7792 64.7103 91.564 54.9254 91.564 42.8551C91.564 30.7849 81.7792 21 69.7089 21C57.6386 21 47.8538 30.7849 47.8538 42.8551C47.8538 54.9254 57.6386 64.7103 69.7089 64.7103ZM110.093 93.784C112.29 98.4243 113.421 103.398 113.421 108.42H69.7103H26C26 103.398 27.1306 98.4243 29.3272 93.784C31.5239 89.1438 34.7436 84.9275 38.8024 81.376C42.8613 77.8245 47.6799 75.0073 52.9831 73.0852C58.2863 71.1631 63.9702 70.1738 69.7103 70.1738C75.4504 70.1738 81.1343 71.1631 86.4375 73.0852C91.7407 75.0072 96.5592 77.8245 100.618 81.376C104.677 84.9275 107.897 89.1438 110.093 93.784Z" fill="white"/>
</svg>
