<svg width="24" height="24" viewBox="0 0 24 24" fill="none" xmlns="http://www.w3.org/2000/svg">
<path fill-rule="evenodd" clip-rule="evenodd" d="M12 23C18.0751 23 23 18.0751 23 12C23 5.92487 18.0751 1 12 1C5.92487 1 1 5.92487 1 12C1 18.0751 5.92487 23 12 23ZM8 6C9.10457 6 10 6.89543 10 8C10 9.10457 9.10457 10 8 10C6.89543 10 6 9.10457 6 8C6 6.89543 6.89543 6 8 6ZM6 12C7.10457 12 8 12.8954 8 14C8 15.1046 7.10457 16 6 16C4.89543 16 4 15.1046 4 14C4 12.8954 4.89543 12 6 12ZM20 14C20 12.8954 19.1046 12 18 12C16.8954 12 16 12.8954 16 14C16 15.1046 16.8954 16 18 16C19.1046 16 20 15.1046 20 14ZM16 6C17.1046 6 18 6.89543 18 8C18 9.10457 17.1046 10 16 10C14.8954 10 14 9.10457 14 8C14 6.89543 14.8954 6 16 6ZM14 17C14 15.8954 13.1046 15 12 15C10.8954 15 10 15.8954 10 17C10 18.1046 10.8954 19 12 19C13.1046 19 14 18.1046 14 17Z" fill="#0D6EFD"/>
</svg>
