<svg width="23" height="22" viewBox="0 0 23 22" fill="none" xmlns="http://www.w3.org/2000/svg">
<path fill-rule="evenodd" clip-rule="evenodd" d="M11.5 22C17.5751 22 22.5 17.0751 22.5 11C22.5 4.92487 17.5751 0 11.5 0C5.42487 0 0.5 4.92487 0.5 11C0.5 17.0751 5.42487 22 11.5 22ZM7.5 5C8.60457 5 9.5 5.89543 9.5 7C9.5 8.10457 8.60457 9 7.5 9C6.39543 9 5.5 8.10457 5.5 7C5.5 5.89543 6.39543 5 7.5 5ZM5.5 11C6.60457 11 7.5 11.8954 7.5 13C7.5 14.1046 6.60457 15 5.5 15C4.39543 15 3.5 14.1046 3.5 13C3.5 11.8954 4.39543 11 5.5 11ZM19.5 13C19.5 11.8954 18.6046 11 17.5 11C16.3954 11 15.5 11.8954 15.5 13C15.5 14.1046 16.3954 15 17.5 15C18.6046 15 19.5 14.1046 19.5 13ZM15.5 5C16.6046 5 17.5 5.89543 17.5 7C17.5 8.10457 16.6046 9 15.5 9C14.3954 9 13.5 8.10457 13.5 7C13.5 5.89543 14.3954 5 15.5 5ZM13.5 16C13.5 14.8954 12.6046 14 11.5 14C10.3954 14 9.5 14.8954 9.5 16C9.5 17.1046 10.3954 18 11.5 18C12.6046 18 13.5 17.1046 13.5 16Z" fill="white"/>
</svg>
