<svg width="25" height="24" viewBox="0 0 25 24" fill="none" xmlns="http://www.w3.org/2000/svg">
<path fill-rule="evenodd" clip-rule="evenodd" d="M12.4999 23C18.5248 23 23.409 18.1158 23.409 12.0909C23.409 4.2478 21.2521 3 12.4999 3C3.74771 3 1.59082 4.2478 1.59082 12.0909C1.59082 18.1158 6.47499 23 12.4999 23ZM9.77269 6.63635C10.5258 6.63635 11.1363 7.24687 11.1363 7.99999C11.1363 8.7531 10.5258 9.36363 9.77269 9.36363C9.01958 9.36363 8.40906 8.7531 8.40906 7.99999C8.40906 7.24687 9.01958 6.63635 9.77269 6.63635ZM6.59076 10.7273C7.59492 10.7273 8.40895 11.5413 8.40895 12.5454C8.40895 13.5496 7.59492 14.3636 6.59076 14.3636C5.58661 14.3636 4.77258 13.5496 4.77258 12.5454C4.77258 11.5413 5.58661 10.7273 6.59076 10.7273ZM12.4999 10.7273C13.5041 10.7273 14.3181 11.5413 14.3181 12.5454C14.3181 13.5496 13.5041 14.3636 12.4999 14.3636C11.4958 14.3636 10.6818 13.5496 10.6818 12.5454C10.6818 11.5413 11.4958 10.7273 12.4999 10.7273ZM20.2272 12.5454C20.2272 11.5413 19.4132 10.7273 18.409 10.7273C17.4048 10.7273 16.5908 11.5413 16.5908 12.5454C16.5908 13.5496 17.4048 14.3636 18.409 14.3636C19.4132 14.3636 20.2272 13.5496 20.2272 12.5454ZM8.86359 15.2727C9.86775 15.2727 10.6818 16.0867 10.6818 17.0909C10.6818 18.095 9.86775 18.909 8.86359 18.909C7.85944 18.909 7.04541 18.095 7.04541 17.0909C7.04541 16.0867 7.85944 15.2727 8.86359 15.2727ZM17.9545 17.0909C17.9545 16.0867 17.1405 15.2727 16.1363 15.2727C15.1321 15.2727 14.3181 16.0867 14.3181 17.0909C14.3181 18.095 15.1321 18.909 16.1363 18.909C17.1405 18.909 17.9545 18.095 17.9545 17.0909ZM16.5908 7.99999C16.5908 7.24687 15.9803 6.63635 15.2272 6.63635C14.474 6.63635 13.8635 7.24687 13.8635 7.99999C13.8635 8.7531 14.474 9.36363 15.2272 9.36363C15.9803 9.36363 16.5908 8.7531 16.5908 7.99999Z" fill="white"/>
</svg>
