<svg width="24" height="24" viewBox="0 0 24 24" fill="none" xmlns="http://www.w3.org/2000/svg">
<path d="M19.6462 12.8255C19.689 12.5173 19.7104 12.1989 19.7104 11.86C19.7104 11.5313 19.689 11.2027 19.6355 10.8945L21.8094 9.27175C22.0021 9.12796 22.0557 8.85065 21.9379 8.64523L19.8818 5.23531C19.7533 5.00936 19.4855 4.93746 19.2499 5.00936L16.6905 5.99536C16.1551 5.60506 15.5875 5.2764 14.9557 5.0299L14.5701 2.4211C14.5273 2.1746 14.3131 2 14.0561 2H9.94388C9.68687 2 9.4834 2.1746 9.44056 2.4211L9.05504 5.0299C8.42322 5.2764 7.84493 5.61533 7.3202 5.99536L4.76076 5.00936C4.52517 4.92719 4.25744 5.00936 4.12894 5.23531L2.08353 8.64523C1.95502 8.86092 1.99786 9.12796 2.21204 9.27175L4.38595 10.8945C4.33241 11.2027 4.28957 11.5416 4.28957 11.86C4.28957 12.1784 4.31099 12.5173 4.36453 12.8255L2.19062 14.4483C1.99786 14.592 1.94431 14.8694 2.06211 15.0748L4.11823 18.4847C4.24673 18.7107 4.51446 18.7825 4.75005 18.7107L7.30949 17.7247C7.84493 18.1149 8.41251 18.4436 9.04433 18.6901L9.42986 21.2989C9.4834 21.5454 9.68687 21.72 9.94388 21.72H14.0561C14.3131 21.72 14.5273 21.5454 14.5594 21.2989L14.945 18.6901C15.5768 18.4436 16.1551 18.1149 16.6798 17.7247L19.2392 18.7107C19.4748 18.7928 19.7426 18.7107 19.8711 18.4847L21.9272 15.0748C22.0557 14.8488 22.0021 14.592 21.7987 14.4483L19.6462 12.8255ZM12 15.5575C9.87963 15.5575 8.14478 13.8936 8.14478 11.86C8.14478 9.82638 9.87963 8.1625 12 8.1625C14.1204 8.1625 15.8552 9.82638 15.8552 11.86C15.8552 13.8936 14.1204 15.5575 12 15.5575Z" fill="white"/>
</svg>
