<svg width="24" height="24" viewBox="0 0 24 24" fill="none" xmlns="http://www.w3.org/2000/svg">
<path fill-rule="evenodd" clip-rule="evenodd" d="M12.0004 14.4167C15.5149 14.4167 18.364 11.5676 18.364 8.05303C18.364 3.47789 17.1058 2.75 12.0004 2.75C6.89491 2.75 5.63672 3.47789 5.63672 8.05303C5.63672 11.5676 8.48582 14.4167 12.0004 14.4167ZM10.4095 4.87121C10.8488 4.87121 11.2049 5.22734 11.2049 5.66666C11.2049 6.10598 10.8488 6.46211 10.4095 6.46211C9.97016 6.46211 9.61402 6.10598 9.61402 5.66666C9.61402 5.22734 9.97016 4.87121 10.4095 4.87121ZM8.55335 7.25757C9.13911 7.25757 9.61396 7.73242 9.61396 8.31818C9.61396 8.90393 9.13911 9.37878 8.55335 9.37878C7.9676 9.37878 7.49275 8.90393 7.49275 8.31818C7.49275 7.73242 7.9676 7.25757 8.55335 7.25757ZM12.0004 7.25757C12.5861 7.25757 13.061 7.73242 13.061 8.31818C13.061 8.90393 12.5861 9.37878 12.0004 9.37878C11.4146 9.37878 10.9398 8.90393 10.9398 8.31818C10.9398 7.73242 11.4146 7.25757 12.0004 7.25757ZM16.5079 8.31818C16.5079 7.73242 16.0331 7.25757 15.4473 7.25757C14.8616 7.25757 14.3867 7.73242 14.3867 8.31818C14.3867 8.90393 14.8616 9.37878 15.4473 9.37878C16.0331 9.37878 16.5079 8.90393 16.5079 8.31818ZM9.87917 9.90906C10.4649 9.90906 10.9398 10.3839 10.9398 10.9697C10.9398 11.5554 10.4649 12.0303 9.87917 12.0303C9.29341 12.0303 8.81856 11.5554 8.81856 10.9697C8.81856 10.3839 9.29341 9.90906 9.87917 9.90906ZM15.1822 10.9697C15.1822 10.3839 14.7073 9.90906 14.1216 9.90906C13.5358 9.90906 13.061 10.3839 13.061 10.9697C13.061 11.5554 13.5358 12.0303 14.1216 12.0303C14.7073 12.0303 15.1822 11.5554 15.1822 10.9697ZM14.3867 5.66666C14.3867 5.22734 14.0306 4.87121 13.5913 4.87121C13.1519 4.87121 12.7958 5.22734 12.7958 5.66666C12.7958 6.10598 13.1519 6.46211 13.5913 6.46211C14.0306 6.46211 14.3867 6.10598 14.3867 5.66666Z" fill="#984ED2"/>
<path fill-rule="evenodd" clip-rule="evenodd" d="M7.5 16C5.567 16 4 17.567 4 19.5C4 21.433 5.567 23 7.5 23H16.5C18.433 23 20 21.433 20 19.5C20 17.567 18.433 16 16.5 16H7.5ZM10 19.5C10 18.6716 9.32843 18 8.5 18C7.67157 18 7 18.6716 7 19.5C7 20.3284 7.67157 21 8.5 21C9.32843 21 10 20.3284 10 19.5ZM17 19.5C17 18.6716 16.3284 18 15.5 18C14.6716 18 14 18.6716 14 19.5C14 20.3284 14.6716 21 15.5 21C16.3284 21 17 20.3284 17 19.5Z" fill="#984ED2"/>
</svg>
