<svg width="20" height="20" viewBox="0 0 20 20" fill="none" xmlns="http://www.w3.org/2000/svg">
<path fill-rule="evenodd" clip-rule="evenodd" d="M10 20C15.5228 20 20 15.5228 20 10C20 4.47715 15.5228 0 10 0C4.47715 0 0 4.47715 0 10C0 15.5228 4.47715 20 10 20ZM7.67884 7.01465L9.0892 5.6043L7.67901 4.19411L8.73968 3.13345L10.1499 4.54363L11.56 3.13345L12.6207 4.19411L11.2105 5.6043L12.6209 7.01465L11.5602 8.07531L10.1499 6.66496L8.7395 8.07531L7.67884 7.01465ZM7.45232 10.4553C7.45232 9.28287 6.50185 8.3324 5.32938 8.3324C4.15692 8.3324 3.20645 9.28287 3.20645 10.4553C3.20645 11.6278 4.15692 12.5783 5.32938 12.5783C6.50185 12.5783 7.45232 11.6278 7.45232 10.4553ZM16.7933 10.4553C16.7933 9.28287 15.8428 8.3324 14.6703 8.3324C13.4979 8.3324 12.5474 9.28287 12.5474 10.4553C12.5474 11.6278 13.4979 12.5783 14.6703 12.5783C15.8428 12.5783 16.7933 11.6278 16.7933 10.4553ZM9.0892 15.1498L7.67884 16.5601L8.7395 17.6208L10.1499 16.2104L11.5602 17.6208L12.6209 16.5601L11.2105 15.1498L12.6207 13.7396L11.56 12.6789L10.1499 14.0891L8.73968 12.6789L7.67901 13.7396L9.0892 15.1498Z" fill="#5A5C5F"/>
</svg>
