<svg width="24" height="24" viewBox="0 0 24 24" fill="none" xmlns="http://www.w3.org/2000/svg">
<path fill-rule="evenodd" clip-rule="evenodd" d="M12.0002 14.6C15.4796 14.6 18.3002 11.7794 18.3002 8.3C18.3002 4.82061 15.4796 2 12.0002 2C8.5208 2 5.7002 4.82061 5.7002 8.3C5.7002 11.7794 8.5208 14.6 12.0002 14.6ZM9.67544 4.70007C10.421 4.70007 11.0254 5.30449 11.0254 6.05007C11.0254 6.79566 10.421 7.40007 9.67544 7.40007C8.92986 7.40007 8.32544 6.79566 8.32544 6.05007C8.32544 5.30449 8.92986 4.70007 9.67544 4.70007ZM8.85029 8.30007C9.43019 8.30007 9.90029 8.77017 9.90029 9.35007C9.90029 9.92997 9.43019 10.4001 8.85029 10.4001C8.27039 10.4001 7.80029 9.92997 7.80029 9.35007C7.80029 8.77017 8.27039 8.30007 8.85029 8.30007ZM16.2002 9.35007C16.2002 8.77017 15.7301 8.30007 15.1502 8.30007C14.5703 8.30007 14.1002 8.77017 14.1002 9.35007C14.1002 9.92997 14.5703 10.4001 15.1502 10.4001C15.7301 10.4001 16.2002 9.92997 16.2002 9.35007ZM14.2501 4.70007C14.9957 4.70007 15.6001 5.30449 15.6001 6.05007C15.6001 6.79566 14.9957 7.40007 14.2501 7.40007C13.5046 7.40007 12.9001 6.79566 12.9001 6.05007C12.9001 5.30449 13.5046 4.70007 14.2501 4.70007ZM13.3501 11.6751C13.3501 10.9295 12.7457 10.3251 12.0001 10.3251C11.2546 10.3251 10.6501 10.9295 10.6501 11.6751C10.6501 12.4207 11.2546 13.0251 12.0001 13.0251C12.7457 13.0251 13.3501 12.4207 13.3501 11.6751Z" fill="white"/>
<path fill-rule="evenodd" clip-rule="evenodd" d="M7.5 16C5.567 16 4 17.567 4 19.5C4 21.433 5.567 23 7.5 23H16.5C18.433 23 20 21.433 20 19.5C20 17.567 18.433 16 16.5 16H7.5ZM10 19.5C10 18.6716 9.32843 18 8.5 18C7.67157 18 7 18.6716 7 19.5C7 20.3284 7.67157 21 8.5 21C9.32843 21 10 20.3284 10 19.5ZM17 19.5C17 18.6716 16.3284 18 15.5 18C14.6716 18 14 18.6716 14 19.5C14 20.3284 14.6716 21 15.5 21C16.3284 21 17 20.3284 17 19.5Z" fill="white"/>
</svg>
