<svg width="24" height="24" viewBox="0 0 24 24" fill="none" xmlns="http://www.w3.org/2000/svg">
<path fill-rule="evenodd" clip-rule="evenodd" d="M12 23C18.0751 23 23 18.1158 23 12.0909C23 4.2478 20.8251 3 12 3C3.17487 3 1 4.2478 1 12.0909C1 18.1158 5.92487 23 12 23ZM9.5 9.5C9.5 8.11929 8.38071 7 7 7C5.61929 7 4.5 8.11929 4.5 9.5C4.5 10.8807 5.61929 12 7 12C8.38071 12 9.5 10.8807 9.5 9.5ZM19.5 9.5C19.5 8.11929 18.3807 7 17 7C15.6193 7 14.5 8.11929 14.5 9.5C14.5 10.8807 15.6193 12 17 12C18.3807 12 19.5 10.8807 19.5 9.5ZM7 14C8.10457 14 9 14.8954 9 16C9 17.1046 8.10457 18 7 18C5.89543 18 5 17.1046 5 16C5 14.8954 5.89543 14 7 14ZM19 16C19 14.8954 18.1046 14 17 14C15.8954 14 15 14.8954 15 16C15 17.1046 15.8954 18 17 18C18.1046 18 19 17.1046 19 16ZM12 12C12.8284 12 13.5 12.6716 13.5 13.5C13.5 14.3284 12.8284 15 12 15C11.1716 15 10.5 14.3284 10.5 13.5C10.5 12.6716 11.1716 12 12 12ZM10 19.4V17.6H14V19.4H10Z" fill="#FF4135"/>
</svg>
