<svg width="32" height="32" viewBox="0 0 32 32" fill="none" xmlns="http://www.w3.org/2000/svg">
<mask id="path-1-inside-1_394_3896" fill="white">
<path fill-rule="evenodd" clip-rule="evenodd" d="M23.2 4H8.8V11.2H6C4.89543 11.2 4 12.0954 4 13.2V21.2V23.2H6H8.8V28H23.2V23.2H26H28V21.2V13.2C28 12.0954 27.1046 11.2 26 11.2H23.2V4ZM8.8 13.2V13.6H23.2V13.2H26L26 21.2H23.2V18.4H8.8V21.2H6V13.2H8.8Z"/>
</mask>
<path d="M8.8 4V2H6.8V4H8.8ZM23.2 4H25.2V2H23.2V4ZM8.8 11.2V13.2H10.8V11.2H8.8ZM4 23.2H2V25.2H4V23.2ZM8.8 23.2H10.8V21.2H8.8V23.2ZM8.8 28H6.8V30H8.8V28ZM23.2 28V30H25.2V28H23.2ZM23.2 23.2V21.2H21.2V23.2H23.2ZM28 23.2V25.2H30V23.2H28ZM23.2 11.2H21.2V13.2H23.2V11.2ZM8.8 13.6H6.8V15.6H8.8V13.6ZM8.8 13.2H10.8V11.2H8.8V13.2ZM23.2 13.6V15.6H25.2V13.6H23.2ZM23.2 13.2V11.2H21.2V13.2H23.2ZM26 13.2H28V11.2H26V13.2ZM26 21.2V23.2H28V21.2H26ZM23.2 21.2H21.2V23.2H23.2V21.2ZM23.2 18.4H25.2V16.4H23.2V18.4ZM8.8 18.4V16.4H6.8V18.4H8.8ZM8.8 21.2V23.2H10.8V21.2H8.8ZM6 21.2H4V23.2H6V21.2ZM6 13.2V11.2H4V13.2H6ZM8.8 6H23.2V2H8.8V6ZM10.8 11.2V4H6.8V11.2H10.8ZM6 13.2H8.8V9.2H6V13.2ZM6 13.2V9.2C3.79086 9.2 2 10.9909 2 13.2H6ZM6 21.2V13.2H2V21.2H6ZM6 23.2V21.2H2V23.2H6ZM6 21.2H4V25.2H6V21.2ZM8.8 21.2H6V25.2H8.8V21.2ZM10.8 28V23.2H6.8V28H10.8ZM23.2 26H8.8V30H23.2V26ZM21.2 23.2V28H25.2V23.2H21.2ZM26 21.2H23.2V25.2H26V21.2ZM28 21.2H26V25.2H28V21.2ZM26 21.2V23.2H30V21.2H26ZM26 13.2V21.2H30V13.2H26ZM26 13.2H26H30C30 10.9909 28.2091 9.2 26 9.2V13.2ZM23.2 13.2H26V9.2H23.2V13.2ZM21.2 4V11.2H25.2V4H21.2ZM10.8 13.6V13.2H6.8V13.6H10.8ZM23.2 11.6H8.8V15.6H23.2V11.6ZM21.2 13.2V13.6H25.2V13.2H21.2ZM23.2 15.2H26V11.2H23.2V15.2ZM24 13.2L24 21.2H28L28 13.2H24ZM26 19.2H23.2V23.2H26V19.2ZM25.2 21.2V18.4H21.2V21.2H25.2ZM23.2 16.4H8.8V20.4H23.2V16.4ZM6.8 18.4V21.2H10.8V18.4H6.8ZM8.8 19.2H6V23.2H8.8V19.2ZM8 21.2V13.2H4V21.2H8ZM6 15.2H8.8V11.2H6V15.2Z" fill="white" mask="url(#path-1-inside-1_394_3896)"/>
<ellipse cx="24" cy="16.5" rx="1" ry="1.5" fill="white"/>
</svg>
