<svg width="20" height="20" viewBox="0 0 20 20" fill="none" xmlns="http://www.w3.org/2000/svg">
<path fill-rule="evenodd" clip-rule="evenodd" d="M10 20C15.5228 20 20 15.5228 20 10C20 4.47715 15.5228 0 10 0C4.47715 0 0 4.47715 0 10C0 15.5228 4.47715 20 10 20ZM6.36362 4.54543C7.36777 4.54543 8.1818 5.35946 8.1818 6.36362C8.1818 7.36777 7.36777 8.1818 6.36362 8.1818C5.35946 8.1818 4.54543 7.36777 4.54543 6.36362C4.54543 5.35946 5.35946 4.54543 6.36362 4.54543ZM4.54546 10C5.54962 10 6.36365 10.814 6.36365 11.8182C6.36365 12.8223 5.54962 13.6364 4.54546 13.6364C3.54131 13.6364 2.72728 12.8223 2.72728 11.8182C2.72728 10.814 3.54131 10 4.54546 10ZM17.2728 11.8182C17.2728 10.814 16.4588 10 15.4546 10C14.4504 10 13.6364 10.814 13.6364 11.8182C13.6364 12.8223 14.4504 13.6364 15.4546 13.6364C16.4588 13.6364 17.2728 12.8223 17.2728 11.8182ZM13.6363 4.54543C14.6405 4.54543 15.4545 5.35946 15.4545 6.36362C15.4545 7.36777 14.6405 8.1818 13.6363 8.1818C12.6322 8.1818 11.8182 7.36777 11.8182 6.36362C11.8182 5.35946 12.6322 4.54543 13.6363 4.54543ZM11.8182 14.5453C11.8182 13.5412 11.0042 12.7272 10 12.7272C8.99588 12.7272 8.18185 13.5412 8.18185 14.5453C8.18185 15.5495 8.99588 16.3635 10 16.3635C11.0042 16.3635 11.8182 15.5495 11.8182 14.5453Z" fill="#5A5C5F"/>
</svg>
