<svg width="23" height="20" viewBox="0 0 23 20" fill="none" xmlns="http://www.w3.org/2000/svg">
<path fill-rule="evenodd" clip-rule="evenodd" d="M11.5 20C17.5751 20 22.5 15.1158 22.5 9.09091C22.5 1.2478 20.3251 0 11.5 0C2.67487 0 0.5 1.2478 0.5 9.09091C0.5 15.1158 5.42487 20 11.5 20ZM9 6.5C9 5.11929 7.88071 4 6.5 4C5.11929 4 4 5.11929 4 6.5C4 7.88071 5.11929 9 6.5 9C7.88071 9 9 7.88071 9 6.5ZM19 6.5C19 5.11929 17.8807 4 16.5 4C15.1193 4 14 5.11929 14 6.5C14 7.88071 15.1193 9 16.5 9C17.8807 9 19 7.88071 19 6.5ZM6.5 11C7.60457 11 8.5 11.8954 8.5 13C8.5 14.1046 7.60457 15 6.5 15C5.39543 15 4.5 14.1046 4.5 13C4.5 11.8954 5.39543 11 6.5 11ZM18.5 13C18.5 11.8954 17.6046 11 16.5 11C15.3954 11 14.5 11.8954 14.5 13C14.5 14.1046 15.3954 15 16.5 15C17.6046 15 18.5 14.1046 18.5 13ZM11.5 9C12.3284 9 13 9.67157 13 10.5C13 11.3284 12.3284 12 11.5 12C10.6716 12 10 11.3284 10 10.5C10 9.67157 10.6716 9 11.5 9ZM9.5 16.4V14.6H13.5V16.4H9.5Z" fill="white"/>
</svg>
