<svg width="180" height="72" viewBox="0 0 180 72" fill="none" xmlns="http://www.w3.org/2000/svg">
<g clip-path="url(#clip0_249_3881)">
<path d="M90.1234 26.8977L79.4349 45.0844L74.1333 36.0671L58.0557 8.71094H100.814L90.1234 26.8977Z" fill="#35AD68"/>
<path d="M79.4349 45.4524L57.7302 8.52563H101.14L100.978 8.80122L90.2873 26.9879L79.4349 45.4502V45.4524ZM58.3789 8.89603L79.4349 44.7161L100.489 8.89603H58.3789Z" fill="#35AD68"/>
<path d="M122.35 8.71094L90.2018 63.4034L82.9968 51.1451L107.94 8.71094H122.35Z" fill="white"/>
<path d="M90.202 63.7714L82.7793 51.145L82.8332 51.0524L107.831 8.52563H122.674L122.51 8.80122L90.1998 63.7692L90.202 63.7714ZM83.2125 51.145L90.202 63.0329L122.023 8.89603H108.046L83.2125 51.1472V51.145Z" fill="white"/>
<path d="M61.0588 50.2015H42.9924L37.9288 41.5854H55.9928H70.836L63.4155 28.959H48.5724H30.5061L25.4424 20.3408H43.5064H58.3496L50.9269 7.71436H36.0837H18.0197H3.17651L10.5992 20.3408L28.1515 50.2015L35.572 62.8279H50.4129H68.4792H83.3224L75.9019 50.2015H61.0588Z" fill="white"/>
<path d="M155.085 20.3408H169.93L177.353 7.71436H162.508H144.443H129.603L122.178 20.3408H122.18L117.114 28.959L109.691 41.5854H124.537H142.598L137.533 50.2015H119.473H104.628L97.2048 62.8279H112.05H130.112H144.957L152.38 50.2015H152.378L157.444 41.5854L164.864 28.959H150.021H131.957L137.023 20.3408H155.085Z" fill="white"/>
<path d="M107.831 7.75195L82.8332 50.2787L82.7793 50.3713L90.0426 62.7266L90.1998 63.033L122.692 7.75195H107.831Z" fill="white"/>
</g>
<defs>
<clipPath id="clip0_249_3881">
<rect width="174.176" height="56.0571" fill="white" transform="translate(3.17651 7.71436)"/>
</clipPath>
</defs>
</svg>
