<svg width="155" height="24" viewBox="0 0 155 24" fill="none" xmlns="http://www.w3.org/2000/svg">
<g clip-path="url(#clip0_268_281)">
<path d="M30.0411 8.96605L26.4782 15.0283L24.711 12.0225L19.3518 2.90381H33.6047L30.0411 8.96605Z" fill="#35AD68"/>
<path d="M26.4783 15.151L19.2434 2.84204H33.7132L33.6594 2.9339L30.0958 8.99614L26.4783 15.1502V15.151ZM19.4596 2.96551L26.4783 14.9055L33.4962 2.96551H19.4596Z" fill="white"/>
<path d="M40.7834 2.90381L30.0672 21.1346L27.6655 17.0485L35.9801 2.90381H40.7834Z" fill="white"/>
<path d="M30.0673 21.2573L27.593 17.0485L27.611 17.0176L35.9435 2.84204H40.8912L40.8366 2.9339L30.0665 21.2566L30.0673 21.2573ZM27.7374 17.0485L30.0673 21.0111L40.6742 2.96551H36.0153L27.7374 17.0492V17.0485Z" fill="white"/>
<path d="M20.3529 16.7339H14.3308L12.6429 13.8619H18.6643H23.612L21.1385 9.65309H16.1908H10.1687L8.48079 6.78034H14.5022H19.4499L16.9756 2.57153H12.0279H6.00656H1.05884L3.53307 6.78034L9.38385 16.7339L11.8573 20.9427H16.8043H22.8264H27.7741L25.3006 16.7339H20.3529Z" fill="white"/>
<path d="M51.695 6.78034H56.6434L59.1177 2.57153H54.1692H48.1478H43.2009L40.7259 6.78034H40.7266L39.038 9.65309L36.5637 13.8619H41.5122H47.5328L45.8442 16.7339H39.8243H34.8758L32.4016 20.9427H37.3501H43.3707H48.3192L50.7934 16.7339H50.7926L52.4813 13.8619L54.9548 9.65309H50.0071H43.9857L45.6743 6.78034H51.695Z" fill="white"/>
<path d="M35.9435 2.58398L27.611 16.7596L27.593 16.7904L30.0141 20.9089L30.0665 21.011L40.8972 2.58398H35.9435Z" fill="white"/>
</g>
<path d="M69.3916 5.77344H77.6709V7.68945H71.6768V11.1699H77.2314V13.0859H71.6768V16.5664H77.7061V18.5H69.3916V5.77344ZM84.8779 18.5H82.417L79.0068 8.95508H81.3975L83.5947 16.0566H83.7002L85.915 8.95508H88.2881L84.8779 18.5ZM89.6943 8.95508H91.9443V18.5H89.6943V8.95508ZM90.8369 7.60156C90.6025 7.60156 90.3857 7.5459 90.1865 7.43457C89.9873 7.32324 89.8291 7.17383 89.7119 6.98633C89.5947 6.79883 89.5361 6.59375 89.5361 6.37109C89.5361 6.1543 89.5947 5.95215 89.7119 5.76465C89.8291 5.57715 89.9873 5.43066 90.1865 5.3252C90.3857 5.21387 90.6025 5.1582 90.8369 5.1582C91.0713 5.1582 91.2881 5.21387 91.4873 5.3252C91.6865 5.43066 91.8447 5.57715 91.9619 5.76465C92.0791 5.95215 92.1377 6.1543 92.1377 6.37109C92.1377 6.59375 92.0791 6.79883 91.9619 6.98633C91.8447 7.17383 91.6865 7.32324 91.4873 7.43457C91.2881 7.5459 91.0713 7.60156 90.8369 7.60156ZM99.5029 11.6797C99.4326 11.3164 99.251 11.0293 98.958 10.8184C98.6709 10.6074 98.2988 10.502 97.8418 10.502C97.5195 10.502 97.2295 10.5488 96.9717 10.6426C96.7197 10.7363 96.5205 10.8682 96.374 11.0381C96.2334 11.208 96.1631 11.4014 96.1631 11.6182C96.1631 11.876 96.2686 12.0957 96.4795 12.2773C96.6963 12.459 97.042 12.6055 97.5166 12.7168L99.1338 13.0508C100.036 13.25 100.707 13.5635 101.146 13.9912C101.592 14.4131 101.817 14.9668 101.823 15.6523C101.823 16.25 101.656 16.7803 101.322 17.2432C100.988 17.7002 100.514 18.0576 99.8984 18.3154C99.2832 18.5674 98.5654 18.6934 97.7451 18.6934C96.5439 18.6934 95.5889 18.4385 94.8799 17.9287C94.1768 17.4189 93.7666 16.7012 93.6494 15.7754H95.9346C95.999 16.1797 96.1836 16.4844 96.4883 16.6895C96.7988 16.8945 97.2178 16.9941 97.7451 16.9883C98.29 16.9941 98.7236 16.8945 99.0459 16.6895C99.3682 16.4844 99.5322 16.2031 99.5381 15.8457C99.5322 15.5703 99.418 15.3418 99.1953 15.1602C98.9727 14.9785 98.624 14.8379 98.1494 14.7383L96.6201 14.4043C95.7354 14.2227 95.0645 13.9062 94.6074 13.4551C94.1504 13.0039 93.9248 12.4355 93.9307 11.75C93.9307 11.1699 94.0889 10.6602 94.4053 10.2207C94.7217 9.77539 95.1699 9.43262 95.75 9.19238C96.3359 8.95215 97.0127 8.83203 97.7803 8.83203C98.5303 8.83203 99.1836 8.94922 99.7402 9.18359C100.303 9.41211 100.742 9.74023 101.059 10.168C101.381 10.5957 101.571 11.0996 101.63 11.6797H99.5029ZM107.905 5.77344H112.687C113.636 5.77344 114.444 5.95215 115.112 6.30957C115.786 6.66699 116.296 7.16504 116.642 7.80371C116.987 8.43652 117.163 9.16602 117.169 9.99219C117.163 10.8125 116.984 11.5391 116.633 12.1719C116.287 12.8047 115.774 13.2998 115.095 13.6572C114.421 14.0146 113.606 14.1934 112.651 14.1934H110.19V18.5H107.905V5.77344ZM112.335 12.3125C113.167 12.3066 113.791 12.0957 114.207 11.6797C114.623 11.2578 114.831 10.6953 114.831 9.99219C114.831 9.2832 114.623 8.72363 114.207 8.31348C113.791 7.89746 113.167 7.68945 112.335 7.68945H110.19V12.3125H112.335ZM118.909 8.95508H121.089V10.5371H121.194C121.364 9.99219 121.66 9.57031 122.082 9.27148C122.504 8.9668 122.993 8.81445 123.55 8.81445C123.808 8.81445 124.077 8.83203 124.358 8.86719V10.9414C124.259 10.9062 124.106 10.877 123.901 10.8535C123.702 10.8242 123.509 10.8066 123.321 10.8008C122.911 10.8008 122.542 10.8916 122.214 11.0732C121.886 11.249 121.628 11.4951 121.44 11.8115C121.253 12.1221 121.159 12.4766 121.159 12.875V18.5H118.909V8.95508ZM125.694 8.95508H127.944V18.5H125.694V8.95508ZM126.837 7.60156C126.603 7.60156 126.386 7.5459 126.187 7.43457C125.987 7.32324 125.829 7.17383 125.712 6.98633C125.595 6.79883 125.536 6.59375 125.536 6.37109C125.536 6.1543 125.595 5.95215 125.712 5.76465C125.829 5.57715 125.987 5.43066 126.187 5.3252C126.386 5.21387 126.603 5.1582 126.837 5.1582C127.071 5.1582 127.288 5.21387 127.487 5.3252C127.687 5.43066 127.845 5.57715 127.962 5.76465C128.079 5.95215 128.138 6.1543 128.138 6.37109C128.138 6.59375 128.079 6.79883 127.962 6.98633C127.845 7.17383 127.687 7.32324 127.487 7.43457C127.288 7.5459 127.071 7.60156 126.837 7.60156ZM130.089 8.95508H132.233V10.5723H132.356C132.556 10.0273 132.884 9.60254 133.341 9.29785C133.798 8.9873 134.343 8.83203 134.976 8.83203C135.614 8.83203 136.159 8.9873 136.61 9.29785C137.062 9.60254 137.378 10.0273 137.56 10.5723H137.665C137.876 10.0391 138.233 9.61719 138.737 9.30664C139.247 8.99023 139.845 8.83203 140.53 8.83203C141.122 8.83203 141.641 8.95801 142.086 9.20996C142.537 9.45605 142.886 9.8252 143.132 10.3174C143.378 10.8037 143.501 11.3926 143.501 12.084V18.5H141.269V12.4355C141.269 11.8672 141.116 11.4395 140.812 11.1523C140.513 10.8594 140.12 10.7129 139.634 10.7129C139.095 10.7129 138.67 10.8799 138.359 11.2139C138.049 11.5479 137.894 11.9902 137.894 12.541V18.5H135.714V12.3477C135.708 11.8555 135.556 11.46 135.257 11.1611C134.964 10.8623 134.577 10.7129 134.097 10.7129C133.774 10.7129 133.479 10.7979 133.209 10.9678C132.945 11.1318 132.734 11.3662 132.576 11.6709C132.418 11.9697 132.339 12.3125 132.339 12.6992V18.5H130.089V8.95508ZM149.882 18.6934C148.933 18.6934 148.109 18.4941 147.412 18.0957C146.715 17.6914 146.179 17.1201 145.804 16.3818C145.429 15.6436 145.241 14.7793 145.241 13.7891C145.241 12.8105 145.429 11.9492 145.804 11.2051C146.179 10.4551 146.706 9.87207 147.386 9.45605C148.071 9.04004 148.862 8.83203 149.759 8.83203C150.567 8.83203 151.3 9.00781 151.956 9.35938C152.618 9.70508 153.143 10.2383 153.529 10.959C153.922 11.6797 154.118 12.5762 154.118 13.6484V14.3516H147.456C147.468 14.8848 147.573 15.3477 147.772 15.7402C147.978 16.127 148.259 16.4229 148.616 16.6279C148.979 16.833 149.401 16.9355 149.882 16.9355C150.362 16.9355 150.77 16.8477 151.104 16.6719C151.438 16.4902 151.681 16.25 151.833 15.9512H154.03C153.896 16.502 153.641 16.9854 153.266 17.4014C152.891 17.8115 152.413 18.1309 151.833 18.3594C151.259 18.582 150.608 18.6934 149.882 18.6934ZM151.974 12.8223C151.974 12.3945 151.88 12.0107 151.692 11.6709C151.511 11.3252 151.253 11.0557 150.919 10.8623C150.591 10.6689 150.216 10.5723 149.794 10.5723C149.36 10.5723 148.971 10.6748 148.625 10.8799C148.279 11.0791 148.007 11.3516 147.808 11.6973C147.608 12.043 147.494 12.418 147.465 12.8223H151.974Z" fill="white"/>
<defs>
<clipPath id="clip0_268_281">
<rect width="58.0588" height="18.6857" fill="white" transform="translate(1.05884 2.57153)"/>
</clipPath>
</defs>
</svg>
